# 3ds Max Wavefront OBJ Exporter v0.97b - (c)2007 guruware
# File Created: 16.10.2015 16:23:29

mtllib Mound.mtl

#
# object bugor
#

v  41.3937 0.0107 -0.3388
v  41.3937 -184.1983 -0.3388
v  -41.3937 -184.1983 -0.3388
v  -41.3937 0.0107 -0.3388
v  34.0473 0.0107 14.6612
v  -34.0473 0.0107 14.6612
v  -34.0473 -176.8519 14.6612
v  34.0473 -176.8519 14.6612
v  41.3937 -184.1983 7.3149
v  -41.3937 -184.1983 7.3149
v  41.3937 0.0107 7.3149
v  -41.3937 0.0107 7.3149
# 12 vertices

vn 0.0000 0.0000 -1.0000
vn 0.0000 0.0000 1.0000
vn 0.0000 -1.0000 0.0000
vn 1.0000 0.0000 0.0000
vn 0.0000 1.0000 0.0000
vn -1.0000 0.0000 0.0000
vn 0.0000 -0.7071 0.7071
vn 0.7071 0.0000 0.7071
vn -0.7071 0.0000 0.7071
# 9 vertex normals

vt 0.0005 0.9995 0.0005
vt 0.0005 0.0005 0.0005
vt 0.9995 0.0005 0.0005
vt 0.9995 0.9995 0.0005
vt 0.9109 0.9995 0.9995
vt 0.0891 0.9995 0.9995
vt 0.0891 0.0403 0.9995
vt 0.9109 0.0403 0.9995
vt 0.9995 0.5102 0.0005
vt 0.0005 0.5102 0.0005
vt 0.9995 0.5102 0.9995
vt 0.0005 0.5102 0.9995
vt 0.0005 0.0005 0.9995
vt 0.9995 0.0005 0.9995
vt 0.9995 0.0005 0.5102
vt 0.0005 0.0005 0.5102
vt 0.9995 0.9995 0.5102
vt 0.0005 0.9995 0.5102
# 18 texture coords

g bugor
usemtl wire_224198087
s 1
f 1/1/1 2/2/1 3/3/1 4/4/1 
f 5/5/2 6/6/2 7/7/2 8/8/2 
f 9/9/3 10/10/3 3/2/3 2/3/3 
f 11/11/4 9/12/4 2/13/4 1/14/4 
f 6/5/5 1/13/5 4/14/5 12/11/5 
f 11/12/5 1/13/5 6/5/5 5/6/5 
f 10/9/6 12/10/6 4/2/6 3/3/6 
f 9/15/7 8/8/7 7/7/7 10/16/7 
f 11/17/8 5/5/8 8/8/8 9/15/8 
f 10/16/9 7/7/9 6/6/9 12/18/9 
# 10 polygons

